<mxfile host="65bd71144e">
    <diagram id="pwrnCCXdlygUe7S9XfU-" name="Design Outline">
        <mxGraphModel dx="412" dy="527" grid="1" gridSize="10" guides="1" tooltips="1" connect="1" arrows="1" fold="1" page="1" pageScale="1" pageWidth="850" pageHeight="1100" math="0" shadow="0">
            <root>
                <mxCell id="0"/>
                <mxCell id="1" parent="0"/>
                <mxCell id="2" value="" style="rounded=0;whiteSpace=wrap;html=1;" parent="1" vertex="1">
                    <mxGeometry x="40" y="40" width="760" height="760" as="geometry"/>
                </mxCell>
                <mxCell id="3" value="Use location input:[&amp;nbsp; &amp;nbsp; &amp;nbsp; &amp;nbsp; &amp;nbsp; &amp;nbsp; &amp;nbsp; &amp;nbsp; &amp;nbsp; &amp;nbsp;]&lt;br&gt;Current Location: &quot;User imputted location&quot;&lt;br&gt;Current temp:&lt;span style=&quot;white-space: pre;&quot;&gt;&#9;&lt;/span&gt;&lt;span style=&quot;white-space: pre;&quot;&gt;&#9;&lt;/span&gt;&lt;span style=&quot;white-space: pre;&quot;&gt;&#9;&lt;/span&gt;Weather type (sunny/cloudy as img)" style="rounded=1;whiteSpace=wrap;html=1;" parent="1" vertex="1">
                    <mxGeometry x="120" y="60" width="610" height="60" as="geometry"/>
                </mxCell>
                <mxCell id="4" value="Temp details for today&lt;br&gt;&lt;br&gt;temp:&lt;br&gt;weather type:&amp;nbsp;&lt;br&gt;Feels like:?&lt;br&gt;Min/Max&lt;br&gt;rain chance/coverage&lt;br&gt;etc." style="rounded=1;whiteSpace=wrap;html=1;" parent="1" vertex="1">
                    <mxGeometry x="360" y="140" width="120" height="220" as="geometry"/>
                </mxCell>
                <mxCell id="5" value="Temp details for tomorrrow&lt;br&gt;&lt;br&gt;temp:&lt;br&gt;weather type:&amp;nbsp;&lt;br&gt;Feels like:?&lt;br&gt;Min/Max&lt;br&gt;rain chance/coverage&lt;br&gt;etc." style="rounded=1;whiteSpace=wrap;html=1;" parent="1" vertex="1">
                    <mxGeometry x="550" y="170" width="120" height="220" as="geometry"/>
                </mxCell>
                <mxCell id="6" value="Temp details for Yesterday&lt;br&gt;&lt;br&gt;temp:&lt;br&gt;weather type:&amp;nbsp;&lt;br&gt;Feels like:?&lt;br&gt;Min/Max&lt;br&gt;rain chance/coverage&lt;br&gt;etc." style="rounded=1;whiteSpace=wrap;html=1;" parent="1" vertex="1">
                    <mxGeometry x="170" y="170" width="120" height="220" as="geometry"/>
                </mxCell>
                <mxCell id="7" value="" style="rounded=1;whiteSpace=wrap;html=1;" parent="1" vertex="1">
                    <mxGeometry x="390" y="450" width="70" height="60" as="geometry"/>
                </mxCell>
                <mxCell id="8" value="" style="rounded=1;whiteSpace=wrap;html=1;" parent="1" vertex="1">
                    <mxGeometry x="310" y="450" width="70" height="60" as="geometry"/>
                </mxCell>
                <mxCell id="9" value="" style="rounded=1;whiteSpace=wrap;html=1;" parent="1" vertex="1">
                    <mxGeometry x="230" y="450" width="70" height="60" as="geometry"/>
                </mxCell>
                <mxCell id="10" value="" style="rounded=1;whiteSpace=wrap;html=1;" parent="1" vertex="1">
                    <mxGeometry x="470" y="450" width="70" height="60" as="geometry"/>
                </mxCell>
                <mxCell id="11" value="" style="rounded=1;whiteSpace=wrap;html=1;" parent="1" vertex="1">
                    <mxGeometry x="550" y="450" width="70" height="60" as="geometry"/>
                </mxCell>
                <mxCell id="12" value="" style="rounded=1;whiteSpace=wrap;html=1;" parent="1" vertex="1">
                    <mxGeometry x="630" y="450" width="70" height="60" as="geometry"/>
                </mxCell>
                <mxCell id="13" value="" style="rounded=1;whiteSpace=wrap;html=1;" parent="1" vertex="1">
                    <mxGeometry x="150" y="450" width="70" height="60" as="geometry"/>
                </mxCell>
                <mxCell id="14" value="Little information boxes for the next 7 days" style="text;html=1;strokeColor=none;fillColor=none;align=center;verticalAlign=middle;whiteSpace=wrap;rounded=0;" parent="1" vertex="1">
                    <mxGeometry x="200" y="410" width="410" height="30" as="geometry"/>
                </mxCell>
                <mxCell id="15" value="Other info on the area perhaps? See API's information." style="rounded=1;whiteSpace=wrap;html=1;" parent="1" vertex="1">
                    <mxGeometry x="140" y="550" width="580" height="200" as="geometry"/>
                </mxCell>
            </root>
        </mxGraphModel>
    </diagram>
    <diagram id="sW8JoKhOhYJsK1nYOHfo" name="Design Sprint">
        <mxGraphModel dx="812" dy="659" grid="1" gridSize="10" guides="1" tooltips="1" connect="1" arrows="1" fold="1" page="1" pageScale="1" pageWidth="850" pageHeight="1100" math="0" shadow="0">
            <root>
                <mxCell id="0"/>
                <mxCell id="1" parent="0"/>
                <mxCell id="E-a7gZm_dDBSbTcGdw83-3" value="" style="edgeStyle=none;html=1;" parent="1" source="E-a7gZm_dDBSbTcGdw83-1" target="E-a7gZm_dDBSbTcGdw83-2" edge="1">
                    <mxGeometry relative="1" as="geometry"/>
                </mxCell>
                <mxCell id="E-a7gZm_dDBSbTcGdw83-1" value="Create HTML" style="rounded=0;whiteSpace=wrap;html=1;strokeColor=#00FF00;" parent="1" vertex="1">
                    <mxGeometry x="80" y="40" width="120" height="60" as="geometry"/>
                </mxCell>
                <mxCell id="E-a7gZm_dDBSbTcGdw83-5" value="" style="edgeStyle=none;html=1;" parent="1" source="E-a7gZm_dDBSbTcGdw83-2" target="E-a7gZm_dDBSbTcGdw83-4" edge="1">
                    <mxGeometry relative="1" as="geometry"/>
                </mxCell>
                <mxCell id="E-a7gZm_dDBSbTcGdw83-2" value="Create CSS" style="whiteSpace=wrap;html=1;rounded=0;strokeColor=#00FF00;" parent="1" vertex="1">
                    <mxGeometry x="80" y="120" width="120" height="60" as="geometry"/>
                </mxCell>
                <mxCell id="E-a7gZm_dDBSbTcGdw83-7" value="" style="edgeStyle=none;html=1;" parent="1" source="E-a7gZm_dDBSbTcGdw83-4" target="E-a7gZm_dDBSbTcGdw83-6" edge="1">
                    <mxGeometry relative="1" as="geometry"/>
                </mxCell>
                <mxCell id="E-a7gZm_dDBSbTcGdw83-4" value="Create JS" style="whiteSpace=wrap;html=1;rounded=0;strokeColor=#00FF00;" parent="1" vertex="1">
                    <mxGeometry x="80" y="200" width="120" height="60" as="geometry"/>
                </mxCell>
                <mxCell id="E-a7gZm_dDBSbTcGdw83-9" value="" style="edgeStyle=none;html=1;" parent="1" source="E-a7gZm_dDBSbTcGdw83-6" target="E-a7gZm_dDBSbTcGdw83-8" edge="1">
                    <mxGeometry relative="1" as="geometry"/>
                </mxCell>
                <mxCell id="E-a7gZm_dDBSbTcGdw83-6" value="Link files" style="whiteSpace=wrap;html=1;rounded=0;strokeColor=#00FF00;" parent="1" vertex="1">
                    <mxGeometry x="80" y="280" width="120" height="60" as="geometry"/>
                </mxCell>
                <mxCell id="E-a7gZm_dDBSbTcGdw83-19" value="" style="edgeStyle=none;html=1;" parent="1" source="E-a7gZm_dDBSbTcGdw83-8" target="E-a7gZm_dDBSbTcGdw83-16" edge="1">
                    <mxGeometry relative="1" as="geometry"/>
                </mxCell>
                <mxCell id="E-a7gZm_dDBSbTcGdw83-32" value="" style="edgeStyle=none;html=1;" parent="1" source="E-a7gZm_dDBSbTcGdw83-8" target="E-a7gZm_dDBSbTcGdw83-31" edge="1">
                    <mxGeometry relative="1" as="geometry"/>
                </mxCell>
                <mxCell id="E-a7gZm_dDBSbTcGdw83-8" value="Create Header" style="whiteSpace=wrap;html=1;rounded=0;strokeColor=#00FF00;" parent="1" vertex="1">
                    <mxGeometry x="80" y="360" width="120" height="60" as="geometry"/>
                </mxCell>
                <mxCell id="E-a7gZm_dDBSbTcGdw83-21" value="" style="edgeStyle=none;html=1;" parent="1" source="E-a7gZm_dDBSbTcGdw83-14" target="E-a7gZm_dDBSbTcGdw83-20" edge="1">
                    <mxGeometry relative="1" as="geometry"/>
                </mxCell>
                <mxCell id="E-a7gZm_dDBSbTcGdw83-14" value="Stick to top" style="shape=parallelogram;perimeter=parallelogramPerimeter;whiteSpace=wrap;html=1;fixedSize=1;fillColor=#0050ef;fontColor=#ffffff;strokeColor=#00FF00;" parent="1" vertex="1">
                    <mxGeometry x="250" y="270" width="110" height="60" as="geometry"/>
                </mxCell>
                <mxCell id="E-a7gZm_dDBSbTcGdw83-18" value="" style="edgeStyle=none;html=1;" parent="1" source="E-a7gZm_dDBSbTcGdw83-16" target="E-a7gZm_dDBSbTcGdw83-14" edge="1">
                    <mxGeometry relative="1" as="geometry"/>
                </mxCell>
                <mxCell id="E-a7gZm_dDBSbTcGdw83-16" value="Create outline&lt;br&gt;&amp;nbsp;with 80% (?) &lt;br&gt;width" style="shape=parallelogram;perimeter=parallelogramPerimeter;whiteSpace=wrap;html=1;fixedSize=1;fillColor=#0050ef;fontColor=#ffffff;strokeColor=#00FF00;" parent="1" vertex="1">
                    <mxGeometry x="250" y="360" width="110" height="60" as="geometry"/>
                </mxCell>
                <mxCell id="E-a7gZm_dDBSbTcGdw83-23" value="" style="edgeStyle=none;html=1;" parent="1" source="E-a7gZm_dDBSbTcGdw83-20" target="E-a7gZm_dDBSbTcGdw83-22" edge="1">
                    <mxGeometry relative="1" as="geometry"/>
                </mxCell>
                <mxCell id="E-a7gZm_dDBSbTcGdw83-20" value="Add blank &lt;br&gt;input box" style="shape=parallelogram;perimeter=parallelogramPerimeter;whiteSpace=wrap;html=1;fixedSize=1;fillColor=#0050ef;fontColor=#ffffff;strokeColor=#00FF00;" parent="1" vertex="1">
                    <mxGeometry x="250" y="180" width="120" height="60" as="geometry"/>
                </mxCell>
                <mxCell id="E-a7gZm_dDBSbTcGdw83-25" value="" style="edgeStyle=none;html=1;" parent="1" source="E-a7gZm_dDBSbTcGdw83-22" target="E-a7gZm_dDBSbTcGdw83-24" edge="1">
                    <mxGeometry relative="1" as="geometry"/>
                </mxCell>
                <mxCell id="E-a7gZm_dDBSbTcGdw83-22" value="Add user location" style="shape=parallelogram;perimeter=parallelogramPerimeter;whiteSpace=wrap;html=1;fixedSize=1;fillColor=#0050ef;fontColor=#ffffff;strokeColor=#00FF00;" parent="1" vertex="1">
                    <mxGeometry x="250" y="90" width="120" height="60" as="geometry"/>
                </mxCell>
                <mxCell id="E-a7gZm_dDBSbTcGdw83-28" value="" style="edgeStyle=none;html=1;" parent="1" source="E-a7gZm_dDBSbTcGdw83-24" target="E-a7gZm_dDBSbTcGdw83-27" edge="1">
                    <mxGeometry relative="1" as="geometry"/>
                </mxCell>
                <mxCell id="E-a7gZm_dDBSbTcGdw83-24" value="Add Current &lt;br&gt;Temp" style="shape=parallelogram;perimeter=parallelogramPerimeter;whiteSpace=wrap;html=1;fixedSize=1;fillColor=#0050ef;fontColor=#ffffff;strokeColor=#00FF00;" parent="1" vertex="1">
                    <mxGeometry x="390" y="90" width="120" height="60" as="geometry"/>
                </mxCell>
                <mxCell id="E-a7gZm_dDBSbTcGdw83-30" value="" style="edgeStyle=none;html=1;" parent="1" source="E-a7gZm_dDBSbTcGdw83-27" target="E-a7gZm_dDBSbTcGdw83-29" edge="1">
                    <mxGeometry relative="1" as="geometry"/>
                </mxCell>
                <mxCell id="E-a7gZm_dDBSbTcGdw83-27" value="Add Current &lt;br&gt;Weather" style="shape=parallelogram;perimeter=parallelogramPerimeter;whiteSpace=wrap;html=1;fixedSize=1;fillColor=#0050ef;fontColor=#ffffff;strokeColor=#FF0000;" parent="1" vertex="1">
                    <mxGeometry x="390" y="180" width="120" height="60" as="geometry"/>
                </mxCell>
                <mxCell id="g54CuKLHQgBz8KitET7K-2" value="" style="edgeStyle=none;html=1;fontSize=13;" parent="1" source="E-a7gZm_dDBSbTcGdw83-29" target="g54CuKLHQgBz8KitET7K-1" edge="1">
                    <mxGeometry relative="1" as="geometry"/>
                </mxCell>
                <mxCell id="E-a7gZm_dDBSbTcGdw83-29" value="MVP Sprint" style="ellipse;whiteSpace=wrap;html=1;fillColor=#a20025;strokeColor=#6F0000;fontColor=#ffffff;" parent="1" vertex="1">
                    <mxGeometry x="410" y="270" width="80" height="80" as="geometry"/>
                </mxCell>
                <mxCell id="E-a7gZm_dDBSbTcGdw83-34" value="" style="edgeStyle=none;html=1;" parent="1" source="E-a7gZm_dDBSbTcGdw83-31" target="E-a7gZm_dDBSbTcGdw83-33" edge="1">
                    <mxGeometry relative="1" as="geometry"/>
                </mxCell>
                <mxCell id="E-a7gZm_dDBSbTcGdw83-31" value="Create Main" style="whiteSpace=wrap;html=1;rounded=0;strokeColor=#00FF00;" parent="1" vertex="1">
                    <mxGeometry x="80" y="450" width="120" height="60" as="geometry"/>
                </mxCell>
                <mxCell id="E-a7gZm_dDBSbTcGdw83-36" value="" style="edgeStyle=none;html=1;" parent="1" source="E-a7gZm_dDBSbTcGdw83-33" target="E-a7gZm_dDBSbTcGdw83-35" edge="1">
                    <mxGeometry relative="1" as="geometry"/>
                </mxCell>
                <mxCell id="8r9bIHVWYEslRnjeu-8d-3" value="" style="edgeStyle=none;html=1;dashed=1;" parent="1" source="E-a7gZm_dDBSbTcGdw83-33" target="8r9bIHVWYEslRnjeu-8d-2" edge="1">
                    <mxGeometry relative="1" as="geometry"/>
                </mxCell>
                <mxCell id="E-a7gZm_dDBSbTcGdw83-33" value="Create section for yesterday, today and tomorrow" style="whiteSpace=wrap;html=1;rounded=0;strokeColor=#00FF00;" parent="1" vertex="1">
                    <mxGeometry x="80" y="540" width="120" height="60" as="geometry"/>
                </mxCell>
                <mxCell id="E-a7gZm_dDBSbTcGdw83-38" value="" style="edgeStyle=none;html=1;" parent="1" source="E-a7gZm_dDBSbTcGdw83-35" target="E-a7gZm_dDBSbTcGdw83-37" edge="1">
                    <mxGeometry relative="1" as="geometry"/>
                </mxCell>
                <mxCell id="E-a7gZm_dDBSbTcGdw83-35" value="Set to grid&lt;br&gt;1 x 3" style="shape=parallelogram;perimeter=parallelogramPerimeter;whiteSpace=wrap;html=1;fixedSize=1;fillColor=#76608a;fontColor=#ffffff;strokeColor=#432D57;" parent="1" vertex="1">
                    <mxGeometry x="245" y="540" width="120" height="60" as="geometry"/>
                </mxCell>
                <mxCell id="E-a7gZm_dDBSbTcGdw83-40" value="" style="edgeStyle=none;html=1;" parent="1" source="E-a7gZm_dDBSbTcGdw83-37" target="E-a7gZm_dDBSbTcGdw83-39" edge="1">
                    <mxGeometry relative="1" as="geometry"/>
                </mxCell>
                <mxCell id="E-a7gZm_dDBSbTcGdw83-37" value="Create divs(?) &lt;br&gt;for &quot;today&quot;" style="shape=parallelogram;perimeter=parallelogramPerimeter;whiteSpace=wrap;html=1;fixedSize=1;fillColor=#76608a;fontColor=#ffffff;strokeColor=#432D57;" parent="1" vertex="1">
                    <mxGeometry x="390" y="540" width="120" height="60" as="geometry"/>
                </mxCell>
                <mxCell id="E-a7gZm_dDBSbTcGdw83-42" value="" style="edgeStyle=none;html=1;" parent="1" source="E-a7gZm_dDBSbTcGdw83-39" target="E-a7gZm_dDBSbTcGdw83-41" edge="1">
                    <mxGeometry relative="1" as="geometry"/>
                </mxCell>
                <mxCell id="E-a7gZm_dDBSbTcGdw83-39" value="Create sub divs&amp;nbsp;&lt;br&gt;for diff info" style="shape=parallelogram;perimeter=parallelogramPerimeter;whiteSpace=wrap;html=1;fixedSize=1;fillColor=#76608a;fontColor=#ffffff;strokeColor=#432D57;" parent="1" vertex="1">
                    <mxGeometry x="530" y="540" width="120" height="60" as="geometry"/>
                </mxCell>
                <mxCell id="E-a7gZm_dDBSbTcGdw83-44" value="" style="edgeStyle=none;html=1;" parent="1" source="E-a7gZm_dDBSbTcGdw83-41" target="E-a7gZm_dDBSbTcGdw83-43" edge="1">
                    <mxGeometry relative="1" as="geometry"/>
                </mxCell>
                <mxCell id="E-a7gZm_dDBSbTcGdw83-41" value="Create info &lt;br&gt;details" style="shape=parallelogram;perimeter=parallelogramPerimeter;whiteSpace=wrap;html=1;fixedSize=1;fillColor=#76608a;fontColor=#ffffff;strokeColor=#432D57;" parent="1" vertex="1">
                    <mxGeometry x="530" y="440" width="120" height="60" as="geometry"/>
                </mxCell>
                <mxCell id="E-a7gZm_dDBSbTcGdw83-48" value="" style="edgeStyle=none;html=1;" parent="1" source="E-a7gZm_dDBSbTcGdw83-43" target="E-a7gZm_dDBSbTcGdw83-47" edge="1">
                    <mxGeometry relative="1" as="geometry"/>
                </mxCell>
                <mxCell id="E-a7gZm_dDBSbTcGdw83-43" value="Creat text&amp;nbsp;&lt;br&gt;placeholders" style="shape=parallelogram;perimeter=parallelogramPerimeter;whiteSpace=wrap;html=1;fixedSize=1;fillColor=#76608a;fontColor=#ffffff;strokeColor=#432D57;" parent="1" vertex="1">
                    <mxGeometry x="530" y="350" width="120" height="60" as="geometry"/>
                </mxCell>
                <mxCell id="8r9bIHVWYEslRnjeu-8d-1" value="" style="edgeStyle=none;html=1;" parent="1" source="E-a7gZm_dDBSbTcGdw83-47" target="E-a7gZm_dDBSbTcGdw83-49" edge="1">
                    <mxGeometry relative="1" as="geometry"/>
                </mxCell>
                <mxCell id="E-a7gZm_dDBSbTcGdw83-47" value="Copy for &lt;br&gt;&amp;nbsp;yestderay and&amp;nbsp;&lt;br&gt;tomorrow" style="shape=parallelogram;perimeter=parallelogramPerimeter;whiteSpace=wrap;html=1;fixedSize=1;fillColor=#76608a;fontColor=#ffffff;strokeColor=#432D57;" parent="1" vertex="1">
                    <mxGeometry x="680" y="350" width="120" height="60" as="geometry"/>
                </mxCell>
                <mxCell id="E-a7gZm_dDBSbTcGdw83-49" value="Daily Sprint" style="ellipse;whiteSpace=wrap;html=1;fillColor=#a20025;strokeColor=#6F0000;fontColor=#ffffff;" parent="1" vertex="1">
                    <mxGeometry x="700" y="440" width="80" height="80" as="geometry"/>
                </mxCell>
                <mxCell id="8r9bIHVWYEslRnjeu-8d-2" value="TBD" style="whiteSpace=wrap;html=1;rounded=0;" parent="1" vertex="1">
                    <mxGeometry x="80" y="650" width="120" height="60" as="geometry"/>
                </mxCell>
                <mxCell id="l63NBs8bbf2dafo-lBHu-1" value="Design: HTML and CSS" style="text;html=1;strokeColor=none;fillColor=none;align=center;verticalAlign=middle;whiteSpace=wrap;rounded=0;fontSize=20;fontStyle=5;fontColor=#FFFFFF;" parent="1" vertex="1">
                    <mxGeometry x="273" y="10" width="305" height="30" as="geometry"/>
                </mxCell>
                <mxCell id="g54CuKLHQgBz8KitET7K-1" value="Mini Header Sprint" style="ellipse;whiteSpace=wrap;html=1;fillColor=#a20025;strokeColor=#6F0000;fontColor=#ffffff;" parent="1" vertex="1">
                    <mxGeometry x="520" y="220" width="80" height="80" as="geometry"/>
                </mxCell>
            </root>
        </mxGraphModel>
    </diagram>
    <diagram id="f0J7JzxES6gAKlsZXo95" name="MVP Sprint">
        <mxGraphModel dx="812" dy="659" grid="1" gridSize="10" guides="1" tooltips="1" connect="1" arrows="1" fold="1" page="1" pageScale="1" pageWidth="850" pageHeight="1100" math="0" shadow="0">
            <root>
                <mxCell id="0"/>
                <mxCell id="1" parent="0"/>
                <mxCell id="Eo0LRYMfDvI6t5-eJCYO-4" value="" style="edgeStyle=none;html=1;fontSize=20;fontColor=#FFFFFF;" parent="1" source="7ecKBjB1f46xMUsgGfbp-2" target="Eo0LRYMfDvI6t5-eJCYO-3" edge="1">
                    <mxGeometry relative="1" as="geometry"/>
                </mxCell>
                <mxCell id="7ecKBjB1f46xMUsgGfbp-2" value="Create basic API fetching function in Isolation (console.log)" style="rounded=0;whiteSpace=wrap;html=1;strokeColor=#00FF00;" parent="1" vertex="1">
                    <mxGeometry x="325" y="110" width="200" height="60" as="geometry"/>
                </mxCell>
                <mxCell id="Eo0LRYMfDvI6t5-eJCYO-1" value="MVP Sprint" style="text;html=1;strokeColor=none;fillColor=none;align=center;verticalAlign=middle;whiteSpace=wrap;rounded=0;fontSize=20;fontColor=#FFFFFF;" parent="1" vertex="1">
                    <mxGeometry x="363" y="50" width="125" height="30" as="geometry"/>
                </mxCell>
                <mxCell id="Eo0LRYMfDvI6t5-eJCYO-6" value="" style="edgeStyle=none;html=1;fontSize=12;fontColor=#FFFFFF;" parent="1" source="Eo0LRYMfDvI6t5-eJCYO-3" target="Eo0LRYMfDvI6t5-eJCYO-5" edge="1">
                    <mxGeometry relative="1" as="geometry"/>
                </mxCell>
                <mxCell id="Eo0LRYMfDvI6t5-eJCYO-3" value="Debug and fix" style="shape=process;whiteSpace=wrap;html=1;backgroundOutline=1;fontSize=20;fontColor=#FFFFFF;strokeColor=#00FF00;" parent="1" vertex="1">
                    <mxGeometry x="365" y="200" width="120" height="60" as="geometry"/>
                </mxCell>
                <mxCell id="Eo0LRYMfDvI6t5-eJCYO-8" value="" style="edgeStyle=none;html=1;fontSize=12;fontColor=#FFFFFF;" parent="1" source="Eo0LRYMfDvI6t5-eJCYO-5" target="Eo0LRYMfDvI6t5-eJCYO-7" edge="1">
                    <mxGeometry relative="1" as="geometry"/>
                </mxCell>
                <mxCell id="Eo0LRYMfDvI6t5-eJCYO-5" value="Change API link to include all required info and return data" style="rounded=0;whiteSpace=wrap;html=1;fontSize=12;fontColor=#FFFFFF;strokeColor=#00FF00;" parent="1" vertex="1">
                    <mxGeometry x="320" y="290" width="220" height="60" as="geometry"/>
                </mxCell>
                <mxCell id="Eo0LRYMfDvI6t5-eJCYO-10" value="" style="edgeStyle=none;html=1;fontSize=12;fontColor=#FFFFFF;" parent="1" source="Eo0LRYMfDvI6t5-eJCYO-7" target="Eo0LRYMfDvI6t5-eJCYO-9" edge="1">
                    <mxGeometry relative="1" as="geometry"/>
                </mxCell>
                <mxCell id="Eo0LRYMfDvI6t5-eJCYO-7" value="Read through API data layout" style="whiteSpace=wrap;html=1;fontColor=#FFFFFF;rounded=0;strokeColor=#00FF00;" parent="1" vertex="1">
                    <mxGeometry x="320" y="380" width="220" height="60" as="geometry"/>
                </mxCell>
                <mxCell id="Eo0LRYMfDvI6t5-eJCYO-12" value="" style="edgeStyle=none;html=1;fontSize=12;fontColor=#FFFFFF;" parent="1" source="Eo0LRYMfDvI6t5-eJCYO-9" target="Eo0LRYMfDvI6t5-eJCYO-11" edge="1">
                    <mxGeometry relative="1" as="geometry"/>
                </mxCell>
                <mxCell id="Eo0LRYMfDvI6t5-eJCYO-9" value="Create Const's for appropriate data locations" style="whiteSpace=wrap;html=1;fontColor=#FFFFFF;rounded=0;strokeColor=#00FF00;" parent="1" vertex="1">
                    <mxGeometry x="320" y="480" width="220" height="60" as="geometry"/>
                </mxCell>
                <mxCell id="Eo0LRYMfDvI6t5-eJCYO-14" value="" style="edgeStyle=none;html=1;fontSize=12;fontColor=#FFFFFF;" parent="1" source="Eo0LRYMfDvI6t5-eJCYO-11" target="Eo0LRYMfDvI6t5-eJCYO-13" edge="1">
                    <mxGeometry relative="1" as="geometry"/>
                </mxCell>
                <mxCell id="Eo0LRYMfDvI6t5-eJCYO-11" value="Create Header display function for required info" style="whiteSpace=wrap;html=1;fontColor=#FFFFFF;rounded=0;strokeColor=#00FF00;" parent="1" vertex="1">
                    <mxGeometry x="320" y="570" width="220" height="60" as="geometry"/>
                </mxCell>
                <mxCell id="Eo0LRYMfDvI6t5-eJCYO-16" value="" style="edgeStyle=none;html=1;fontSize=12;fontColor=#FFFFFF;" parent="1" source="Eo0LRYMfDvI6t5-eJCYO-13" target="Eo0LRYMfDvI6t5-eJCYO-15" edge="1">
                    <mxGeometry relative="1" as="geometry"/>
                </mxCell>
                <mxCell id="Eo0LRYMfDvI6t5-eJCYO-13" value="Create Loader function which calls the functions" style="whiteSpace=wrap;html=1;fontColor=#FFFFFF;rounded=0;strokeColor=#00FF00;" parent="1" vertex="1">
                    <mxGeometry x="320" y="660" width="220" height="60" as="geometry"/>
                </mxCell>
                <mxCell id="Eo0LRYMfDvI6t5-eJCYO-18" value="" style="edgeStyle=none;html=1;fontSize=12;fontColor=#FFFFFF;" parent="1" source="Eo0LRYMfDvI6t5-eJCYO-15" target="Eo0LRYMfDvI6t5-eJCYO-17" edge="1">
                    <mxGeometry relative="1" as="geometry"/>
                </mxCell>
                <mxCell id="Eo0LRYMfDvI6t5-eJCYO-15" value="Create variable and event watcher for user location input" style="whiteSpace=wrap;html=1;fontColor=#FFFFFF;rounded=0;strokeColor=#00FF00;" parent="1" vertex="1">
                    <mxGeometry x="320" y="750" width="220" height="60" as="geometry"/>
                </mxCell>
                <mxCell id="Eo0LRYMfDvI6t5-eJCYO-20" value="" style="edgeStyle=none;html=1;fontSize=12;fontColor=#FFFFFF;" parent="1" source="Eo0LRYMfDvI6t5-eJCYO-17" target="Eo0LRYMfDvI6t5-eJCYO-19" edge="1">
                    <mxGeometry relative="1" as="geometry"/>
                </mxCell>
                <mxCell id="Eo0LRYMfDvI6t5-eJCYO-25" value="" style="edgeStyle=none;html=1;fontSize=12;fontColor=#FFFFFF;" parent="1" source="Eo0LRYMfDvI6t5-eJCYO-17" target="Eo0LRYMfDvI6t5-eJCYO-24" edge="1">
                    <mxGeometry relative="1" as="geometry"/>
                </mxCell>
                <mxCell id="Eo0LRYMfDvI6t5-eJCYO-17" value="Create function to put user location to the API url" style="whiteSpace=wrap;html=1;fontColor=#FFFFFF;rounded=0;strokeColor=#00FF00;" parent="1" vertex="1">
                    <mxGeometry x="320" y="840" width="220" height="60" as="geometry"/>
                </mxCell>
                <mxCell id="Eo0LRYMfDvI6t5-eJCYO-19" value="Look into how to perform this.&lt;br&gt;Second API for lang/long?&lt;br&gt;Current API have the option?" style="shape=hexagon;perimeter=hexagonPerimeter2;whiteSpace=wrap;html=1;fixedSize=1;fontSize=12;fontColor=#FFFFFF;strokeColor=#00FF00;" parent="1" vertex="1">
                    <mxGeometry x="70" y="840" width="200" height="80" as="geometry"/>
                </mxCell>
                <mxCell id="Eo0LRYMfDvI6t5-eJCYO-21" value="Sprint Complete" style="ellipse;whiteSpace=wrap;html=1;fontColor=#ffffff;rounded=0;fillColor=#008a00;strokeColor=#FF8000;" parent="1" vertex="1">
                    <mxGeometry x="390" y="1010" width="80" height="80" as="geometry"/>
                </mxCell>
                <mxCell id="Eo0LRYMfDvI6t5-eJCYO-26" value="" style="edgeStyle=none;html=1;fontSize=12;fontColor=#FFFFFF;" parent="1" source="Eo0LRYMfDvI6t5-eJCYO-24" target="Eo0LRYMfDvI6t5-eJCYO-21" edge="1">
                    <mxGeometry relative="1" as="geometry"/>
                </mxCell>
                <mxCell id="Eo0LRYMfDvI6t5-eJCYO-24" value="Update fetch function to include arguements for user input" style="whiteSpace=wrap;html=1;fontColor=#FFFFFF;rounded=0;strokeColor=#00FF00;" parent="1" vertex="1">
                    <mxGeometry x="320" y="930" width="220" height="60" as="geometry"/>
                </mxCell>
            </root>
        </mxGraphModel>
    </diagram>
    <diagram id="M0NWXlINwRQralfYXhiM" name="Mini Header Sprint">
        <mxGraphModel dx="412" dy="527" grid="1" gridSize="10" guides="1" tooltips="1" connect="1" arrows="1" fold="1" page="1" pageScale="1" pageWidth="850" pageHeight="1100" math="0" shadow="0">
            <root>
                <mxCell id="0"/>
                <mxCell id="1" parent="0"/>
                <mxCell id="aeLSWF4SkV9iFRgNQgD2-8" value="" style="edgeStyle=none;html=1;fontSize=19;" parent="1" source="aeLSWF4SkV9iFRgNQgD2-5" target="aeLSWF4SkV9iFRgNQgD2-7" edge="1">
                    <mxGeometry relative="1" as="geometry"/>
                </mxCell>
                <mxCell id="aeLSWF4SkV9iFRgNQgD2-10" style="edgeStyle=none;html=1;exitX=0.75;exitY=1;exitDx=0;exitDy=0;entryX=0.5;entryY=0;entryDx=0;entryDy=0;fontSize=13;" parent="1" source="aeLSWF4SkV9iFRgNQgD2-5" target="aeLSWF4SkV9iFRgNQgD2-9" edge="1">
                    <mxGeometry relative="1" as="geometry"/>
                </mxCell>
                <mxCell id="aeLSWF4SkV9iFRgNQgD2-5" value="Find images/icons for the weather types" style="rounded=0;whiteSpace=wrap;html=1;strokeColor=#00FF00;fillColor=#000000;" parent="1" vertex="1">
                    <mxGeometry x="230" y="100" width="170" height="60" as="geometry"/>
                </mxCell>
                <mxCell id="aeLSWF4SkV9iFRgNQgD2-6" value="Images for weather" style="text;html=1;strokeColor=none;fillColor=none;align=center;verticalAlign=middle;whiteSpace=wrap;rounded=0;fontSize=19;" parent="1" vertex="1">
                    <mxGeometry x="205" y="40" width="220" height="30" as="geometry"/>
                </mxCell>
                <mxCell id="aeLSWF4SkV9iFRgNQgD2-12" style="edgeStyle=none;html=1;exitX=0.5;exitY=1;exitDx=0;exitDy=0;fontSize=13;" parent="1" source="aeLSWF4SkV9iFRgNQgD2-7" target="aeLSWF4SkV9iFRgNQgD2-11" edge="1">
                    <mxGeometry relative="1" as="geometry"/>
                </mxCell>
                <mxCell id="aeLSWF4SkV9iFRgNQgD2-7" value="Gather links for the icons to be used in the code" style="rounded=0;whiteSpace=wrap;html=1;strokeColor=#FFFFFF;fillColor=#000000;" parent="1" vertex="1">
                    <mxGeometry x="130" y="200" width="170" height="60" as="geometry"/>
                </mxCell>
                <mxCell id="aeLSWF4SkV9iFRgNQgD2-13" style="edgeStyle=none;html=1;exitX=0.5;exitY=1;exitDx=0;exitDy=0;fontSize=13;" parent="1" source="aeLSWF4SkV9iFRgNQgD2-9" target="aeLSWF4SkV9iFRgNQgD2-11" edge="1">
                    <mxGeometry relative="1" as="geometry"/>
                </mxCell>
                <mxCell id="aeLSWF4SkV9iFRgNQgD2-9" value="Save the icons to a file and then use them from the files." style="rounded=0;whiteSpace=wrap;html=1;strokeColor=#00FF00;fontSize=13;fillColor=#000000;" parent="1" vertex="1">
                    <mxGeometry x="340" y="200" width="170" height="60" as="geometry"/>
                </mxCell>
                <mxCell id="TBEnrWoK4V3Nn4ARezI4-2" value="" style="edgeStyle=none;html=1;" parent="1" source="aeLSWF4SkV9iFRgNQgD2-11" target="TBEnrWoK4V3Nn4ARezI4-1" edge="1">
                    <mxGeometry relative="1" as="geometry"/>
                </mxCell>
                <mxCell id="aeLSWF4SkV9iFRgNQgD2-11" value="Create an if statement either in a new function or in display" style="rounded=0;whiteSpace=wrap;html=1;strokeColor=#00FF00;fontSize=13;fillColor=#000000;" parent="1" vertex="1">
                    <mxGeometry x="175" y="330" width="280" height="60" as="geometry"/>
                </mxCell>
                <mxCell id="aeLSWF4SkV9iFRgNQgD2-14" value="Icon website to link later at bottom&lt;br&gt;&amp;lt;a target=&quot;_blank&quot; href=&quot;https://icons8.com/icon/tWaanYfjvDq4/partly-cloudy-day&quot;&amp;gt;Partly Cloudy Day&amp;lt;/a&amp;gt; icon by &amp;lt;a target=&quot;_blank&quot; href=&quot;https://icons8.com&quot;&amp;gt;Icons8&amp;lt;/a&amp;gt;" style="ellipse;shape=cloud;whiteSpace=wrap;html=1;strokeColor=#FFFFFF;fontSize=13;fillColor=#000000;" parent="1" vertex="1">
                    <mxGeometry x="810" y="240" width="570" height="240" as="geometry"/>
                </mxCell>
                <mxCell id="TBEnrWoK4V3Nn4ARezI4-3" value="" style="edgeStyle=none;html=1;" parent="1" source="TBEnrWoK4V3Nn4ARezI4-1" target="aeLSWF4SkV9iFRgNQgD2-14" edge="1">
                    <mxGeometry relative="1" as="geometry"/>
                </mxCell>
                <mxCell id="TBEnrWoK4V3Nn4ARezI4-1" value="Switch statement used as a new function" style="shape=process;whiteSpace=wrap;html=1;backgroundOutline=1;fontSize=13;fillColor=#000000;strokeColor=#00FF00;rounded=0;" parent="1" vertex="1">
                    <mxGeometry x="490" y="330" width="245" height="60" as="geometry"/>
                </mxCell>
                <mxCell id="TBEnrWoK4V3Nn4ARezI4-4" value="Additional function added to fix casing on the user input before assigning to header" style="rounded=0;whiteSpace=wrap;html=1;strokeColor=#00FF00;fillColor=#000000;" parent="1" vertex="1">
                    <mxGeometry x="180" y="440" width="280" height="60" as="geometry"/>
                </mxCell>
                <mxCell id="TBEnrWoK4V3Nn4ARezI4-5" value="Added redo image allowing the removal of input and submit button. Clicking redo image brings back the input and submit." style="rounded=0;whiteSpace=wrap;html=1;strokeColor=#00FF00;fillColor=#000000;" parent="1" vertex="1">
                    <mxGeometry x="180" y="530" width="280" height="60" as="geometry"/>
                </mxCell>
            </root>
        </mxGraphModel>
    </diagram>
    <diagram id="-NgrC8shHHIZitDW6hXY" name="Daily Sprint">
        <mxGraphModel dx="412" dy="527" grid="1" gridSize="10" guides="1" tooltips="1" connect="1" arrows="1" fold="1" page="1" pageScale="1" pageWidth="850" pageHeight="1100" math="0" shadow="0">
            <root>
                <mxCell id="0"/>
                <mxCell id="1" parent="0"/>
                <mxCell id="vLLz2N2PEIo-5bt03SZy-1" value="Daily Information Spring" style="text;html=1;strokeColor=none;fillColor=none;align=center;verticalAlign=middle;whiteSpace=wrap;rounded=0;fontSize=22;" parent="1" vertex="1">
                    <mxGeometry x="130" y="40" width="500" height="30" as="geometry"/>
                </mxCell>
                <mxCell id="vLLz2N2PEIo-5bt03SZy-5" value="" style="edgeStyle=none;html=1;fontSize=13;" parent="1" source="vLLz2N2PEIo-5bt03SZy-2" target="vLLz2N2PEIo-5bt03SZy-4" edge="1">
                    <mxGeometry relative="1" as="geometry"/>
                </mxCell>
                <mxCell id="vLLz2N2PEIo-5bt03SZy-2" value="Gather weather information details of interest to be assigned to the daily.&lt;br&gt;Create a table in this planner" style="rounded=0;whiteSpace=wrap;html=1;strokeColor=#FFFFFF;fontSize=13;fillColor=#000000;" parent="1" vertex="1">
                    <mxGeometry x="160" y="80" width="440" height="60" as="geometry"/>
                </mxCell>
                <mxCell id="vLLz2N2PEIo-5bt03SZy-7" value="" style="edgeStyle=none;html=1;fontSize=13;" parent="1" source="vLLz2N2PEIo-5bt03SZy-4" target="vLLz2N2PEIo-5bt03SZy-6" edge="1">
                    <mxGeometry relative="1" as="geometry"/>
                </mxCell>
                <mxCell id="vLLz2N2PEIo-5bt03SZy-4" value="Create new API URL based on the new information required." style="rounded=0;whiteSpace=wrap;html=1;strokeColor=#FFFFFF;fontSize=13;fillColor=#000000;" parent="1" vertex="1">
                    <mxGeometry x="160" y="160" width="440" height="60" as="geometry"/>
                </mxCell>
                <mxCell id="vLLz2N2PEIo-5bt03SZy-9" value="" style="edgeStyle=none;html=1;fontSize=13;" parent="1" source="vLLz2N2PEIo-5bt03SZy-6" target="vLLz2N2PEIo-5bt03SZy-8" edge="1">
                    <mxGeometry relative="1" as="geometry"/>
                </mxCell>
                <mxCell id="vLLz2N2PEIo-5bt03SZy-6" value="Review the API object and update the information table with the info pathways" style="rounded=0;whiteSpace=wrap;html=1;strokeColor=#FFFFFF;fontSize=13;fillColor=#000000;" parent="1" vertex="1">
                    <mxGeometry x="160" y="240" width="440" height="60" as="geometry"/>
                </mxCell>
                <mxCell id="vLLz2N2PEIo-5bt03SZy-11" value="" style="edgeStyle=none;html=1;fontSize=13;" parent="1" source="vLLz2N2PEIo-5bt03SZy-8" target="vLLz2N2PEIo-5bt03SZy-10" edge="1">
                    <mxGeometry relative="1" as="geometry"/>
                </mxCell>
                <mxCell id="vLLz2N2PEIo-5bt03SZy-8" value="HTML: Update the daily sections to include a header for each piece of information and an accompanying paragraph. Set initial paragraph to &quot;Awaiting location&quot;" style="rounded=0;whiteSpace=wrap;html=1;strokeColor=#FFFFFF;fontSize=13;fillColor=#000000;" parent="1" vertex="1">
                    <mxGeometry x="160" y="320" width="440" height="60" as="geometry"/>
                </mxCell>
                <mxCell id="vLLz2N2PEIo-5bt03SZy-13" value="" style="edgeStyle=none;html=1;fontSize=13;" parent="1" source="vLLz2N2PEIo-5bt03SZy-10" target="vLLz2N2PEIo-5bt03SZy-12" edge="1">
                    <mxGeometry relative="1" as="geometry"/>
                </mxCell>
                <mxCell id="vLLz2N2PEIo-5bt03SZy-10" value="CSS: Set the daily containers to grid display with 2 columns to fix pairing. Set the header and image for weather type to take whole row." style="rounded=0;whiteSpace=wrap;html=1;strokeColor=#FFFFFF;fontSize=13;fillColor=#000000;" parent="1" vertex="1">
                    <mxGeometry x="160" y="400" width="440" height="60" as="geometry"/>
                </mxCell>
                <mxCell id="vLLz2N2PEIo-5bt03SZy-15" value="" style="edgeStyle=none;html=1;fontSize=13;" parent="1" source="vLLz2N2PEIo-5bt03SZy-12" target="vLLz2N2PEIo-5bt03SZy-14" edge="1">
                    <mxGeometry relative="1" as="geometry"/>
                </mxCell>
                <mxCell id="vLLz2N2PEIo-5bt03SZy-12" value="JS: Create function to update the daily information. Function should take weather data and day. If statement depending on the day inputted to change the information gathered and displayed." style="rounded=0;whiteSpace=wrap;html=1;strokeColor=#FFFFFF;fontSize=13;fillColor=#000000;" parent="1" vertex="1">
                    <mxGeometry x="160" y="480" width="440" height="60" as="geometry"/>
                </mxCell>
                <mxCell id="vLLz2N2PEIo-5bt03SZy-17" value="" style="edgeStyle=none;html=1;fontSize=13;" parent="1" source="vLLz2N2PEIo-5bt03SZy-14" target="vLLz2N2PEIo-5bt03SZy-16" edge="1">
                    <mxGeometry relative="1" as="geometry"/>
                </mxCell>
                <mxCell id="vLLz2N2PEIo-5bt03SZy-14" value="JS: Update the weather type function to also take the day so that the single function can update all sections." style="rounded=0;whiteSpace=wrap;html=1;strokeColor=#FFFFFF;fontSize=13;fillColor=#000000;" parent="1" vertex="1">
                    <mxGeometry x="160" y="560" width="440" height="60" as="geometry"/>
                </mxCell>
                <mxCell id="vLLz2N2PEIo-5bt03SZy-16" value="Update callAndDisplay function to include new functions and additional information needed." style="rounded=0;whiteSpace=wrap;html=1;strokeColor=#FFFFFF;fontSize=13;fillColor=#000000;" parent="1" vertex="1">
                    <mxGeometry x="160" y="640" width="440" height="60" as="geometry"/>
                </mxCell>
                <mxCell id="zt29LADaBkaU6sr0mBK9-1" value="Daily weather info&lt;br&gt;&lt;ul&gt;&lt;li&gt;Type of weather&lt;/li&gt;&lt;li style=&quot;&quot;&gt;Maximum Temperature&lt;/li&gt;&lt;li style=&quot;&quot;&gt;Minimum temperature&lt;/li&gt;&lt;li style=&quot;&quot;&gt;Maximum apparent temperature&lt;/li&gt;&lt;li style=&quot;&quot;&gt;Minimum apparent temperature&lt;/li&gt;&lt;li style=&quot;&quot;&gt;Rain chance&lt;/li&gt;&lt;li style=&quot;&quot;&gt;Wind speeds&lt;/li&gt;&lt;li style=&quot;&quot;&gt;Sunrise&lt;/li&gt;&lt;li style=&quot;&quot;&gt;Sunset&lt;/li&gt;&lt;/ul&gt;" style="whiteSpace=wrap;html=1;aspect=fixed;align=left;labelPosition=center;verticalLabelPosition=middle;verticalAlign=middle;" parent="1" vertex="1">
                    <mxGeometry x="930" y="70" width="240" height="240" as="geometry"/>
                </mxCell>
                <mxCell id="zt29LADaBkaU6sr0mBK9-2" value="https://api.open-meteo.com/v1/forecast?latitude=52.52&amp;longitude=13.41&amp;daily=weathercode,temperature_2m_max,temperature_2m_min,apparent_temperature_max,apparent_temperature_min,sunrise,sunset,precipitation_probability_max,windspeed_10m_max&amp;current_weather=true&amp;timezone=Europe%2FLondon&amp;past_days=1&amp;forecast_days=1" style="rounded=0;whiteSpace=wrap;html=1;" parent="1" vertex="1">
                    <mxGeometry x="870" y="660" width="760" height="290" as="geometry"/>
                </mxCell>
            </root>
        </mxGraphModel>
    </diagram>
</mxfile>